<?xml version="1.0" encoding="UTF-8" standalone="no"?>
<!-- Created with Inkscape (http://www.inkscape.org/) -->

<svg
   width="132.29167mm"
   height="132.29167mm"
   viewBox="0 0 132.29167 132.29167"
   version="1.1"
   id="svg1"
   inkscape:version="1.3.2 (1:1.3.2+202311252150+091e20ef0f)"
   sodipodi:docname="brisbane_icon.svg"
   xml:space="preserve"
   xmlns:inkscape="http://www.inkscape.org/namespaces/inkscape"
   xmlns:sodipodi="http://sodipodi.sourceforge.net/DTD/sodipodi-0.dtd"
   xmlns="http://www.w3.org/2000/svg"
   xmlns:svg="http://www.w3.org/2000/svg"><sodipodi:namedview
     id="namedview1"
     pagecolor="#ffffff"
     bordercolor="#000000"
     borderopacity="0.25"
     inkscape:showpageshadow="2"
     inkscape:pageopacity="0.0"
     inkscape:pagecheckerboard="0"
     inkscape:deskcolor="#d1d1d1"
     inkscape:document-units="mm"
     inkscape:zoom="0.68076823"
     inkscape:cx="344.46378"
     inkscape:cy="277.62753"
     inkscape:window-width="1363"
     inkscape:window-height="1066"
     inkscape:window-x="557"
     inkscape:window-y="27"
     inkscape:window-maximized="0"
     inkscape:current-layer="layer2" /><defs
     id="defs1" /><g
     inkscape:groupmode="layer"
     id="layer2"
     inkscape:label="Layer 2"
     transform="translate(-42.423412,-21.554012)"><rect
       style="fill:#a30046;fill-opacity:1;stroke-width:0.516157;stroke-linecap:round;stroke-linejoin:round"
       id="rect5"
       width="132.29169"
       height="93.433456"
       x="42.423409"
       y="60.412212" /><rect
       style="fill:#002b5c;fill-opacity:1;stroke-width:0.568344;stroke-linecap:round;stroke-linejoin:round"
       id="rect3-2"
       width="132.29167"
       height="38.8582"
       x="42.423412"
       y="21.554012" /><path
       style="fill:#fdbe57;fill-opacity:1;stroke-width:0.499999;stroke-linecap:round;stroke-linejoin:round"
       d="m 115.89643,74.958898 3.18831,4.312796 3.94982,2.116128 1.88664,3.292237 7.03832,-2.812445 8.15908,-3.370315 6.20013,-0.450896 6.57403,4.361775 0.5223,8.111305 -7.61517,8.034516 5.69236,11.498151 5.84078,8.0608 -0.37903,12.0823 -12.06407,0.0502 3.17956,-4.16119 3.64715,-0.57032 -0.80104,-5.48852 -8.05803,-3.59755 -8.31044,-7.19102 1.73936,13.04619 -9.44976,7.77992 -10.3389,-0.52814 4.34196,-4.94603 6.13964,-1.0348 0.69912,-1.72441 -1.84191,-6.35103 -0.14228,-5.25257 -19.80422,7.28713 -8.601465,17.98116 -12.360902,1.19275 1.665836,-4.10025 5.729645,-1.32064 2.944661,-6.03885 0.272383,-7.59256 -3.546153,2.70666 -16.675099,4.3011 -8.512068,0.10993 2.225569,-6.45605 c 0,0 7.370232,-0.0259 7.752912,-1.13218 0.382677,-1.10628 6.068149,-4.07179 6.068149,-4.07179 l -2.809913,-10.51501 -1.755296,1.84541 c 0,0 -3.832886,-1.27804 -3.736165,-4.02238 l 3.667272,-1.846431 0.220131,-3.926808 -4.032471,1.084466 -0.760106,1.626541 -1.057147,-1.275994 -1.642764,0.248897 -1.11523,-6.345604 5.041581,-3.911459 1.021498,-2.697915 3.708726,-0.947925 -1.383061,-4.589031 5.395683,-2.34654 16.710744,2.590399 7.71296,12.465899 5.75813,2.253461 14.67225,-3.094976 h 7.7377 l 7.56084,2.435905 c 2.45651,-0.833638 3.74457,-1.561485 4.55506,-2.745026 0.80321,-1.172901 1.13961,-2.794835 1.19447,-5.082902 l -5.69825,-3.146024 -9.79159,2.921872 -9.08014,4.073272 -5.58093,-1.512739 -6.05827,-4.713088 0.49507,-3.518242 z"
       id="path4"
       sodipodi:nodetypes="ccccccccccccccccccccccccccccccccccccccsccccccccccccccccccccccscccccccc" /><ellipse
       style="fill:#fdbe57;fill-opacity:1;stroke-width:0.526135;stroke-linecap:round;stroke-linejoin:round"
       id="path5"
       cx="71.25901"
       cy="132.44514"
       rx="11.640931"
       ry="5.5948887" /></g><g
     inkscape:label="Layer 1"
     inkscape:groupmode="layer"
     id="layer1"
     transform="translate(-42.423412,-21.554012)" /></svg>
