<?xml version="1.0" encoding="UTF-8" standalone="no"?>
<!-- Created with Inkscape (http://www.inkscape.org/) -->

<svg
   width="132.29167mm"
   height="132.29167mm"
   viewBox="0 0 132.29167 132.29167"
   version="1.1"
   id="svg1"
   inkscape:version="1.3.2 (1:1.3.2+202311252150+091e20ef0f)"
   sodipodi:docname="swans_icon.svg"
   xml:space="preserve"
   xmlns:inkscape="http://www.inkscape.org/namespaces/inkscape"
   xmlns:sodipodi="http://sodipodi.sourceforge.net/DTD/sodipodi-0.dtd"
   xmlns="http://www.w3.org/2000/svg"
   xmlns:svg="http://www.w3.org/2000/svg"><sodipodi:namedview
     id="namedview1"
     pagecolor="#ffffff"
     bordercolor="#000000"
     borderopacity="0.25"
     inkscape:showpageshadow="2"
     inkscape:pageopacity="0.0"
     inkscape:pagecheckerboard="0"
     inkscape:deskcolor="#d1d1d1"
     inkscape:document-units="mm"
     inkscape:zoom="0.91609926"
     inkscape:cx="276.71674"
     inkscape:cy="241.24023"
     inkscape:window-width="1363"
     inkscape:window-height="1066"
     inkscape:window-x="557"
     inkscape:window-y="27"
     inkscape:window-maximized="0"
     inkscape:current-layer="layer2" /><defs
     id="defs1" /><g
     inkscape:groupmode="layer"
     id="layer2"
     inkscape:label="Layer 2"
     transform="translate(-42.423412,-21.554012)"><rect
       style="fill:#e1251b;fill-opacity:1;stroke-width:0.499999;stroke-linecap:round;stroke-linejoin:round"
       id="rect3"
       width="132.29167"
       height="132.29167"
       x="42.423412"
       y="21.554012" /><path
       id="path1"
       style="fill:#fffefe;fill-opacity:1;stroke-width:0.499999;stroke-linecap:round;stroke-linejoin:round"
       d="M 174.71508 47.876953 L 138.44546 95.11438 C 138.44546 95.11438 135.82038 82.864326 141.43236 72.508525 C 141.43236 72.508525 133.06414 70.519788 125.15428 78.259595 C 125.15428 78.259595 118.73013 61.725942 96.388593 59.916012 C 96.388593 59.916012 102.6528 67.044416 101.86319 77.605371 C 101.86319 77.605371 97.213524 71.884298 87.337466 71.207312 C 87.337466 71.207312 90.189116 75.162519 90.110424 83.86287 C 90.110424 83.86287 84.72506 78.440964 77.097265 77.498401 C 77.097265 77.498401 80.230614 87.888372 78.010387 94.37489 L 42.423412 48.201481 L 42.423412 153.84568 L 174.71508 153.84568 L 174.71508 47.876953 z " /></g><g
     inkscape:label="Layer 1"
     inkscape:groupmode="layer"
     id="layer1"
     transform="translate(-42.423412,-21.554012)" /></svg>
